<?xml version="1.0" encoding="UTF-8"?>
<svg width="52px" height="52px" viewBox="0 0 52 52" version="1.1" xmlns="http://www.w3.org/2000/svg" xmlns:xlink="http://www.w3.org/1999/xlink">
  <title>SIG</title>
  <defs>
    <filter id="filter">
      <feColorMatrix type="matrix" values="0 0 0 0 0.262745 0 0 0 0 0.329412 0 0 0 0 0.866667 0 0 0 1.000000 0" />
    </filter>
  </defs>
  <g fill="none" stroke="none">
    <g filter="url(#filter)">
      <g>
        <path d="M1410 900 c-376 -52 -501 -527 -197 -755 153 -115 371 -112 520 7l39 31 79 -79 79 -79 0 228 0 227 -99 0 -98 0 -7 -41 c-13 -79 -67 -153 -141 -192 -58 -30 -174 -30 -231 0 -154 82 -197 275 -88 401 60 70 100 85 244 92l125 5 0 80 0 80 -85 1 c-47 1 -110 -2 -140 -6z"/>
        <path d="M213 890 c-143 -29 -225 -133 -209 -264 13 -101 71 -154 250 -226 137 -55 158 -71 154 -119 -4 -52 -49 -74 -142 -68 -57 4 -85 12 -158 50 l-89 45 3 -86 3 -85 70 -31 c66 -29 77 -31 200 -31 116 0 136 3 182 24 169 76 195 284 48 393 -27 21 -97 57 -155 80 -132 52 -160 71 -160 107 0 75 115 93 266 42 51 -17 96 -31 100 -31 5 0 8 32 7 72 l-1 72 -40 17 c-94 40 -237 57 -329 39z"/>
        <path d="M740 475 l0 -395 95 0 95 0 -2 392 -3 393 -92 3 -93 3 0 -396z"/>
        <path d="M1462 610 c0 -19 2 -27 5 -17 2 9 2 25 0 35 -3 9 -5 1 -5 -18z"/>
        <path d="M1591 609 c1 -31 2 -32 8 -9 l7 25 15 -22 c20 -32 29 -29 28 10 -1 25 -3 27 -6 9 l-5 -24 -24 23 -24 22 1 -34z"/>
        <path d="M1771 608 c2 -28 2 -29 6 -8 3 14 10 28 17 32 7 5 5 8 -6 8 -14 0 -18 -8 -17 -32z"/>
        <path d="M1920 625 c-11 -14 -10 -19 5 -33 18 -16 18 -16 6 0 -7 9 -10 22 -6 28 8 13 42 13 48 0 3 -6 4 -5 3 2 -4 19 -41 21 -56 3z"/>
        <path d="M2100 609 c0 -27 2 -29 15 -15 17 17 20 30 5 21 -5 -3 -10 -2 -10 4 0 5 6 12 13 14 7 3 5 6 -5 6 -14 1 -18 -7 -18 -30z"/>
        <path d="M2260 632 c0 -5 7 -12 15 -16 19 -7 45 3 45 16 0 6 -6 5 -15 -2 -12 -10 -18 -10 -30 0 -9 7 -15 8 -15 2z"/>
        <path d="M2613 633 c9 -2 23 -2 30 0 6 3 -1 5 -18 5 -16 0 -22 -2 -12 -5z"/>
        <path d="M2772 610 c0 -19 2 -27 5 -17 2 9 2 25 0 35 -3 9 -5 1 -5 -18z"/>
        <path d="M2901 626 c-12 -15 -5 -46 11 -46 6 0 5 7 -2 15 -15 18 -6 30 25 38 19 4 19 5 -1 6 -12 0 -27 -5 -33 -13z"/>
        <path d="M2261 594 c0 -11 3 -14 6 -6 3 7 2 16 -1 19 -3 4 -6 -2 -5 -13z"/>
        <path d="M2435 592 c-5 -13 -4 -14 6 -5 8 8 18 9 30 2 14 -7 17 -6 14 4 -8 19 -42 18 -50 -1z"/>
        <path d="M3066 594 c-5 -14 -4 -15 9 -4 17 14 19 20 6 20 -5 0 -12 -7 -15 -16z"/>
        <path d="M3100 601 c0 -5 5 -13 10 -16 6 -3 10 -2 10 4 0 5 -4 13 -10 16 -5 3 -10 2 -10 -4z"/>
      </g>
    </g>
  </g>
</svg>
